P3
# Un damier 2x2 de cases de 2x2 pixels
4 4 255
  0   0   0      0   0   0    255 255 255    255 255 255
  0   0   0      0   0   0    255 255 255    255 255 255
255 255 255    255 255 255      0   0   0      0   0   0
255 255 255    255 255 255      0   0   0      0   0   0
